<?xml version="1.0" encoding="UTF-8"?>
<svg id="Layer_2" data-name="Layer 2" xmlns="http://www.w3.org/2000/svg" xmlns:xlink="http://www.w3.org/1999/xlink" viewBox="0 0 510.29 132.53">
  <defs>
    <style>
      .cls-1 {
        fill: #ca5556;
      }

      .cls-1, .cls-2, .cls-3 {
        stroke: #231f20;
        stroke-miterlimit: 10;
      }

      .cls-2 {
        fill: #53ad51;
      }

      .cls-3 {
        fill: url(#linear-gradient);
      }
    </style>
    <linearGradient id="linear-gradient" x1="210.22" y1="62.84" x2="266.3" y2="62.84" gradientUnits="userSpaceOnUse">
      <stop offset=".5" stop-color="#53ad51"/>
      <stop offset=".5" stop-color="#ca5556"/>
    </linearGradient>
  </defs>
  <g id="Layer_1-2" data-name="Layer 1">
    <g>
      <path class="cls-2" d="M54.01,65.77c-1.75-2.17-4.47-3.7-8.18-4.59,2.44-.84,4.29-1.99,5.56-3.44,1.9-2.18,2.84-4.8,2.84-7.84,0-3.64-1.33-6.68-3.99-9.14-2.66-2.46-6.47-3.69-11.44-3.69h-13.73V16.65h7.74L17.01,.71,1.2,16.65h7.74V54.97h.05v33.63h27.49c1.17,0,3.55-.23,7.14-.7,2.69-.35,4.71-.91,6.04-1.69,2.16-1.24,3.86-2.93,5.1-5.06,1.24-2.13,1.87-4.53,1.87-7.21,0-3.28-.88-6-2.62-8.17Zm-28.96-18.26h7.04c2.41,0,4.1,.42,5.08,1.26,.97,.85,1.46,2.02,1.46,3.52,0,1.62-.49,2.85-1.46,3.71-.98,.85-2.71,1.28-5.19,1.28h-6.93v-9.77Zm13.93,28.56c-1.13,.97-3.06,1.46-5.8,1.46h-8.13v-10.44h8.09c2.79,0,4.74,.46,5.85,1.39,1.12,.92,1.67,2.15,1.67,3.67,0,1.64-.56,2.95-1.68,3.92Z"/>
      <rect class="cls-2" x="25.05" y="47.51" width=".02" height="7.46"/>
      <path class="cls-2" d="M62.95,62.87c0-8.41,2.34-14.96,7.03-19.65,4.69-4.69,11.21-7.03,19.58-7.03s15.19,2.3,19.83,6.91,6.96,11.06,6.96,19.35c0,6.02-1.01,10.96-3.04,14.82-2.03,3.86-4.96,6.86-8.79,9s-8.61,3.22-14.33,3.22-10.62-.93-14.43-2.78c-3.81-1.85-6.9-4.78-9.26-8.79-2.37-4.01-3.55-9.02-3.55-15.05Zm15.93,.07c0,5.2,.97,8.94,2.9,11.21s4.56,3.41,7.89,3.41,6.07-1.11,7.95-3.34c1.88-2.23,2.81-6.22,2.81-11.99,0-4.85-.98-8.4-2.94-10.63-1.96-2.24-4.61-3.36-7.96-3.36s-5.79,1.14-7.73,3.41c-1.95,2.27-2.92,6.04-2.92,11.29Z"/>
      <path class="cls-2" d="M124.93,37.07h15.93v38.85h24.86v12.69h-40.78V37.07Z"/>
      <path class="cls-2" d="M172.96,37.07h15.93v38.85h24.86v12.69h-40.78V37.07Z"/>
      <polygon class="cls-3" points="266.3 37.07 246.26 67.02 246.26 88.6 230.3 88.6 230.3 67.02 210.22 37.07 227.91 37.07 238.3 54.45 248.7 37.07 266.3 37.07"/>
      <path class="cls-1" d="M266.12,37.07h15.13l5.45,28.85,7.97-28.85h15.07l7.99,28.81,5.45-28.81h15.05l-11.36,51.54h-15.62l-9.04-32.45-9,32.45h-15.62l-11.47-51.54Z"/>
      <path class="cls-1" d="M340.2,62.87c0-8.41,2.34-14.96,7.03-19.65s11.21-7.03,19.58-7.03,15.19,2.3,19.83,6.91,6.96,11.06,6.96,19.35c0,6.02-1.01,10.96-3.04,14.82s-4.96,6.86-8.79,9-8.61,3.22-14.33,3.22-10.62-.93-14.43-2.78-6.9-4.78-9.26-8.79-3.55-9.02-3.55-15.05Zm15.93,.07c0,5.2,.97,8.94,2.9,11.21s4.56,3.41,7.89,3.41,6.07-1.11,7.95-3.34,2.81-6.22,2.81-11.99c0-4.85-.98-8.4-2.94-10.63s-4.61-3.36-7.96-3.36-5.79,1.14-7.73,3.41-2.92,6.04-2.92,11.29Z"/>
      <path class="cls-1" d="M400.17,62.87c0-8.41,2.34-14.96,7.03-19.65s11.21-7.03,19.58-7.03,15.19,2.3,19.83,6.91,6.96,11.06,6.96,19.35c0,6.02-1.01,10.96-3.04,14.82s-4.96,6.86-8.79,9-8.61,3.22-14.33,3.22-10.62-.93-14.43-2.78-6.9-4.78-9.26-8.79-3.55-9.02-3.55-15.05Zm15.93,.07c0,5.2,.97,8.94,2.9,11.21s4.56,3.41,7.89,3.41,6.07-1.11,7.95-3.34,2.81-6.22,2.81-11.99c0-4.85-.98-8.4-2.94-10.63s-4.61-3.36-7.96-3.36-5.79,1.14-7.73,3.41-2.92,6.04-2.92,11.29Z"/>
      <path class="cls-1" d="M508.52,52.67c-.84-3.14-2.2-5.89-4.07-8.26-1.88-2.36-4.25-4.18-7.12-5.45-2.87-1.26-6.64-1.89-11.31-1.89h-23.66v40.5h-.15v38.31h-7.74l15.81,15.94,15.8-15.94h-7.74v-27.28h7.68c2.84,0,6-.46,9.5-1.4,2.55-.68,4.94-2.05,7.17-4.1,2.23-2.05,3.97-4.59,5.22-7.63,1.25-3.03,1.88-7.3,1.88-12.81,0-3.52-.42-6.84-1.27-9.99Zm-15.92,19.25c-.8,1.84-1.9,3.13-3.31,3.87-1.4,.74-3.77,1.11-7.1,1.11h-3.9v-28.16h3.97c4.13,0,7.08,1.01,8.86,3.02,1.78,2.02,2.67,5.75,2.67,11.22,0,4.12-.39,7.1-1.19,8.94Z"/>
    </g>
  </g>
</svg>